<?xml version="1.0" encoding="UTF-8" standalone="no" ?>
<!DOCTYPE svg PUBLIC "-//W3C//DTD SVG 1.1//EN" "http://www.w3.org/Graphics/SVG/1.1/DTD/svg11.dtd">
<svg xmlns="http://www.w3.org/2000/svg" xmlns:xlink="http://www.w3.org/1999/xlink" version="1.1" width="1080" height="1080" viewBox="0 0 1080 1080" xml:space="preserve">
<desc>Created with Fabric.js 5.2.4</desc>
<defs>
</defs>
<g transform="matrix(1 0 0 1 540 540)" id="238c4e8d-cc24-4528-a6fb-0e00b1f2fda3"  >
<rect style="stroke: none; stroke-width: 1; stroke-dasharray: none; stroke-linecap: butt; stroke-dashoffset: 0; stroke-linejoin: miter; stroke-miterlimit: 4; fill: rgb(255,255,255); fill-rule: nonzero; opacity: 1; visibility: hidden;" vector-effect="non-scaling-stroke"  x="-540" y="-540" rx="0" ry="0" width="1080" height="1080" />
</g>
<g transform="matrix(1 0 0 1 540 540)" id="ecb07f45-dd6a-4883-9ab9-a2e764b34857"  >
</g>
<g transform="matrix(1 0 0 1 540 540)"  >
<g style="" vector-effect="non-scaling-stroke"   >
		<g transform="matrix(1.33 0 0 1.33 0.77 -6.25)"  >
<path style="stroke: rgb(2,13,5); stroke-width: 1; stroke-dasharray: none; stroke-linecap: butt; stroke-dashoffset: 0; stroke-linejoin: miter; stroke-miterlimit: 4; fill: rgb(255,255,255); fill-rule: nonzero; opacity: 1;" vector-effect="non-scaling-stroke"  transform=" translate(-303.1, -295.01)" d="M 226.917 193.398 C 226.688 193.617 219.525 194.071 211 194.406 C 202.475 194.742 190.55 195.717 184.5 196.573 C 178.45 197.429 172.825 198.129 172 198.13 C 168.442 198.132 154.465 201.247 153.898 202.164 C 153.556 202.718 152.877 203.061 152.388 202.928 C 151.9 202.794 150.702 204.218 149.727 206.092 C 147.698 209.993 148.164 213.445 151.153 216.648 L 153.157 218.796 L 143.328 228.322 C 130.111 241.133 125.365 244.59 114.083 249.618 C 104.789 253.761 94.454 261.307 95.579 263.129 C 95.876 263.608 95.714 264 95.22 264 C 93.845 264 92.151 268.38 91.434 273.789 C 90.742 279.001 92.532 290 94.071 290 C 94.582 290 94.926 290.338 94.836 290.75 C 94.746 291.163 94.996 292.642 95.391 294.038 C 95.831 295.59 95.339 299.474 94.124 304.038 C 91.78 312.841 91.67 313.93 91.574 329.287 C 91.515 338.733 91.798 341.261 93 342.021 C 93.825 342.543 94.151 342.976 93.724 342.985 C 92.274 343.013 96.264 349.484 100.338 353.712 C 105.373 358.937 111.746 361.747 121.926 363.23 L 129.784 364.376 L 131.992 368.938 C 133.207 371.447 136.205 376.315 138.656 379.756 C 141.106 383.197 142.834 386.46 142.496 387.006 C 142.147 387.571 136.918 388 130.375 388 C 124.047 388 117.998 388.466 116.934 389.035 C 114.417 390.382 114.417 394.618 116.934 395.965 C 118.247 396.668 177.917 397 302.779 397 C 479.679 397 486.753 396.93 488.345 395.171 C 490.421 392.877 490.431 391.574 488.386 389.528 C 487.03 388.173 484.344 387.934 471.636 388.037 C 452.265 388.193 451.894 388.056 456.513 382.419 C 458.472 380.028 461.167 376.149 462.501 373.8 L 464.927 369.529 L 476.445 367.803 C 483.76 366.706 489.954 365.134 493.423 363.493 C 499.414 360.659 509.332 352.347 508.442 350.906 C 508.134 350.408 508.303 350 508.818 350 C 509.333 350 510.811 347.638 512.104 344.75 C 514.268 339.915 514.482 337.909 514.814 319.365 C 515.101 303.358 514.85 297.963 513.592 293.052 C 510.986 282.881 504.688 275.515 493.818 269.923 C 489.706 267.808 474.162 261.995 473.15 262.195 C 472.792 262.265 471.207 261.79 469.627 261.14 C 468.048 260.489 465.552 259.825 464.082 259.664 C 462.612 259.503 460.927 259.073 460.337 258.708 C 458.869 257.801 413.084 248.681 404 247.486 C 403.175 247.378 401.375 246.998 400 246.643 C 398.625 246.288 395.925 245.802 394 245.565 C 386.009 244.578 383.803 243.426 372.388 234.287 C 349.468 215.936 335.696 206.831 323.396 201.899 C 316.122 198.982 300.799 195.024 296.757 195.018 C 295.516 195.016 289.325 194.593 283 194.077 C 271.676 193.154 227.729 192.622 226.917 193.398 M 203.791 212.034 C 203.631 212.463 197.314 219.661 189.753 228.031 C 178.198 240.822 176.08 243.655 176.467 245.793 C 177.005 248.758 178.359 249.797 182.5 250.426 C 188.389 251.319 225.557 256.191 229.987 256.65 C 238.391 257.52 241.48 257.941 250.5 259.444 C 255.45 260.268 260.4 260.94 261.5 260.936 C 268.259 260.91 274.137 262.379 275.285 264.381 C 276.169 265.922 276.585 277.576 276.811 307.149 L 277.121 347.799 L 271.977 348.149 C 269.147 348.342 266.645 348.313 266.416 348.083 C 266.187 347.854 265.993 339.304 265.985 329.083 C 265.976 318.863 265.63 309.966 265.214 309.313 C 263.726 306.972 258.927 305.869 255.356 307.048 L 252 308.155 L 252 328.078 L 252 348 L 246.116 348 L 240.233 348 L 239.824 337.819 C 239.553 331.072 239.008 327.503 238.207 327.236 C 237.543 327.014 237 326.301 237 325.649 C 237 324.998 235.046 322.223 232.657 319.483 C 230.268 316.742 228.054 313.825 227.736 313 C 227.418 312.175 227.047 314.65 226.911 318.5 C 226.748 323.118 226.528 324.186 226.265 321.639 C 225.978 318.865 225.322 317.635 223.933 317.272 C 222.87 316.994 222 316.343 222 315.824 C 222 315.306 222.419 315.141 222.931 315.457 C 223.443 315.774 224.187 315.506 224.585 314.862 C 225.02 314.158 224.877 313.958 224.226 314.36 C 223.594 314.751 223.009 314.087 222.821 312.765 C 222.645 311.519 221.835 310.5 221.022 310.5 C 219.268 310.5 218.722 312.71 220.244 313.651 C 220.848 314.024 221.019 313.839 220.638 313.224 C 220.269 312.627 220.425 311.856 220.984 311.51 C 222.102 310.819 222.402 313.264 221.331 314.336 C 220.203 315.464 217.093 311.922 217.737 310.242 C 218.138 309.197 217.944 308.917 217.157 309.403 C 216.468 309.829 214.221 308.633 211.774 306.539 C 206.079 301.664 196.38 297.237 189.869 296.541 C 186.916 296.225 183.334 295.729 181.909 295.439 C 176.108 294.257 157.102 299.041 153.571 302.572 C 152.785 303.357 151.709 304 151.18 304 C 149.562 304 140.7 312.472 137.188 317.376 C 135.366 319.919 134.161 322 134.509 322 C 134.858 322 134.46 322.683 133.625 323.518 C 132.79 324.353 131.746 324.974 131.304 324.899 C 130.862 324.824 130.163 324.873 129.75 325.007 C 129.338 325.14 129.563 325.313 130.25 325.39 C 131.192 325.496 131.209 325.716 130.319 326.282 C 129.67 326.695 128.776 326.463 128.334 325.766 C 127.723 324.803 127.527 324.859 127.515 326 C 127.507 326.825 126.825 327.5 126 327.5 C 125.175 327.5 124.5 326.98 124.5 326.345 C 124.5 325.709 123.15 326.321 121.5 327.705 C 119.85 329.088 119.175 329.859 120 329.418 C 121.211 328.77 121.274 328.896 120.325 330.071 C 119.678 330.871 118.966 333.32 118.743 335.513 C 118.38 339.066 118.318 338.925 118.168 334.219 C 118.052 330.563 117.538 328.76 116.5 328.362 C 115.675 328.045 115 327.358 115 326.834 C 115 326.31 115.45 326.16 116 326.5 C 116.55 326.84 117 326.492 117 325.726 C 117 323.712 113.516 324.266 113.417 326.296 C 113.349 327.67 113.301 327.685 113.167 326.378 C 113.023 324.978 112.759 324.944 111.25 326.128 C 109.659 327.376 109.626 327.339 110.893 325.726 C 112.377 323.834 111.841 322.362 110.067 323.459 C 109.48 323.821 109 325.306 109 326.759 C 109 328.325 108.644 329.013 108.126 328.45 C 106.112 326.262 111.972 295.653 114.985 292.62 C 115.742 291.859 118.672 291.484 127.496 291.018 C 135.614 290.59 152.143 282.798 157.492 276.878 C 161.553 272.382 161.769 270.889 158.932 266.904 C 156.164 263.018 153.879 263.19 143.75 268.051 C 135.052 272.224 122.705 274.988 112.724 274.996 L 107.949 275 L 109.392 272.21 C 110.809 269.469 113.463 267.994 126 262.982 C 134.723 259.495 136.851 257.756 160.083 235.125 C 168.104 227.312 174.682 220.15 174.701 219.21 C 174.719 218.269 174.075 216.741 173.27 215.814 C 171.94 214.283 172.113 214.08 175.153 213.616 C 182.707 212.462 187.812 211.837 193.476 211.372 C 196.762 211.102 199.601 210.732 199.784 210.55 C 200.424 209.909 204.079 211.263 203.791 212.034 M 428.5 268.852 C 438.4 271.012 449.088 273.462 452.25 274.295 C 455.413 275.128 458 275.573 458 275.283 C 458 274.992 458.563 275.216 459.25 275.78 C 459.938 276.343 462.525 277.351 465 278.018 C 470.844 279.594 471.082 279.662 473.846 280.539 C 477.688 281.758 492.308 289.025 491.847 289.486 C 490.833 290.501 465.124 290.147 461 289.062 C 458.525 288.411 455.938 287.831 455.25 287.772 C 454.563 287.714 454 287.343 454 286.947 C 454 285.59 447.183 282.993 445.341 283.648 C 441.868 284.885 440 287.288 440 290.52 C 440 295.059 442.922 298.23 450.196 301.589 C 456.39 304.449 456.832 304.504 475.5 304.705 C 485.95 304.818 495.063 304.931 495.75 304.955 C 497.438 305.016 497.374 311.444 495.672 312.858 C 494.941 313.464 493.253 314.161 491.922 314.406 C 490.59 314.651 489.95 314.887 490.5 314.929 C 491.05 314.972 489.925 315.952 488 317.106 C 486.075 318.26 483.267 320.363 481.76 321.779 C 480.254 323.195 478.716 324.05 478.344 323.677 C 477.971 323.305 478.192 323 478.833 323 C 479.475 323 480 322.298 480 321.441 C 480 320.54 480.475 320.176 481.126 320.578 C 481.958 321.092 481.963 320.781 481.142 319.387 C 480.084 317.588 480.002 317.606 479.399 319.75 C 479.051 320.988 478.369 322 477.883 322 C 477.398 322 477 322.702 477 323.559 C 477 324.416 476.55 324.84 476 324.5 C 475.45 324.16 475 324.31 475 324.834 C 475 325.358 475.675 326.045 476.5 326.362 C 477.325 326.678 478 327.491 478 328.169 C 478 329.126 477.733 329.133 476.8 328.2 C 475.123 326.523 474 326.705 474 328.655 C 474 330.195 473.873 330.195 472.171 328.655 C 471.165 327.745 469.703 327.036 468.921 327.079 C 467.903 327.136 467.854 327.301 468.75 327.662 C 470.76 328.473 470.186 329.861 468.069 329.308 C 466.786 328.972 466.336 328.249 466.729 327.151 C 467.053 326.243 466.959 325.825 466.52 326.222 C 466.081 326.62 464.842 325.166 463.766 322.991 C 459.437 314.242 441.227 298.106 438.622 300.712 C 438.28 301.054 438 300.868 438 300.298 C 438 298.601 426.701 295.953 419.348 295.927 C 401.413 295.862 391.867 299.617 379.5 311.601 C 376.75 314.266 374.125 316.458 373.667 316.473 C 373.208 316.488 373.145 316.812 373.526 317.192 C 373.907 317.573 373.333 319.148 372.252 320.692 C 371.17 322.237 370.032 324.175 369.722 325 C 369.266 326.213 369.119 326.165 368.954 324.75 C 368.842 323.788 368.638 322.55 368.5 322 C 368.363 321.45 368.194 319.37 368.125 317.378 C 368.018 314.277 367.784 313.934 366.5 315 C 365.675 315.685 364.931 316.077 364.848 315.872 C 364.764 315.668 364.643 315.958 364.579 316.518 C 364.345 318.574 360.253 321.774 358.916 320.948 C 358.19 320.499 357.291 320.32 356.919 320.55 C 356.547 320.78 355.917 327.05 355.519 334.484 L 354.795 348 L 349.489 348 L 344.182 348 L 343.841 337.548 C 343.653 331.799 343.011 326.608 342.414 326.011 C 341.816 325.415 339.729 324.668 337.776 324.351 C 334.996 323.9 333.766 324.234 332.113 325.887 C 330.244 327.756 330 329.156 330 338 L 330 348 L 324 348 L 318 348 L 318 336.223 C 318 322.141 317.078 320 311.015 320 C 304.596 320 304 321.343 303.997 335.821 L 303.994 348.5 L 298.247 348.494 L 292.5 348.488 L 292.563 306.723 C 292.597 283.753 292.833 265.167 293.087 265.421 C 293.341 265.675 296.688 266.142 300.524 266.459 C 304.361 266.777 314.025 267.905 322 268.965 C 329.975 270.026 338.75 271.125 341.5 271.407 C 344.25 271.689 351.9 272.606 358.5 273.444 C 365.1 274.282 374.1 275.426 378.5 275.985 C 382.9 276.545 388.202 277.002 390.282 277.001 C 395.334 277 401.056 274.501 401.707 272.013 C 401.996 270.906 402.595 270 403.037 270 C 403.479 270 404.118 268.738 404.457 267.195 C 405.221 263.717 404.856 263.692 428.5 268.852 M 429.662 316.146 C 436.681 318.772 444.237 325.586 447.777 332.48 C 449.786 336.393 450.451 339.408 450.795 346.153 C 451.185 353.811 450.948 355.435 448.733 360.273 C 436.115 387.834 398.248 387.923 385.814 360.42 C 384.59 357.714 383.693 355.128 383.82 354.673 C 383.947 354.218 383.639 352.35 383.134 350.523 C 381.399 344.241 385.66 331.874 392.076 324.566 C 400.692 314.754 416.484 311.216 429.662 316.146 M 194.416 317.058 C 208.424 324.034 216.136 339.396 213.062 354.201 C 208.522 376.071 185.432 387.104 164.849 377.238 C 156.874 373.415 152.942 369.624 149.359 362.302 C 146.004 355.444 145.059 345.433 147.084 338.199 C 147.808 335.615 148.411 333.275 148.424 333 C 148.437 332.725 149.134 331.698 149.974 330.718 C 150.813 329.737 151.5 328.671 151.5 328.349 C 151.5 326.654 160.665 318.963 164.765 317.219 C 171.699 314.268 172.723 314.094 181.506 314.367 C 187.638 314.558 190.659 315.187 194.416 317.058 M 371.897 374.25 C 373.595 377.138 375.717 380.513 376.614 381.75 L 378.244 384 L 298.5 384 L 218.756 384 L 220.386 381.75 C 221.283 380.513 223.405 377.138 225.103 374.25 L 228.191 369 L 298.5 369 L 368.809 369 L 371.897 374.25 M 303.171 215.544 C 310.658 217.484 327.201 225.169 330 228.007 C 330.275 228.286 335 232.102 340.5 236.486 C 352.185 245.802 366.26 258.073 365.795 258.538 C 365.617 258.716 356.703 257.755 345.986 256.402 C 326.443 253.936 311.803 252.241 309 252.121 C 304.837 251.943 289.077 249.412 288.493 248.828 C 287.739 248.073 286.88 244.555 283.409 228.022 C 279.929 211.445 279.496 212.588 288.978 213.319 C 293.367 213.657 299.753 214.659 303.171 215.544 M 260.402 219.25 C 261.29 223.788 262.19 228.937 262.403 230.692 C 262.616 232.448 263.103 236.582 263.486 239.878 L 264.181 245.871 L 259.566 245.495 C 257.027 245.288 254.174 244.884 253.225 244.597 C 251.673 244.128 244.329 243.129 219.5 240.009 C 215.1 239.456 209.987 238.748 208.138 238.436 L 204.776 237.867 L 207.062 235.434 C 208.32 234.095 209.045 233 208.674 233 C 208.303 233 208.338 232.898 208.75 232.773 C 209.719 232.479 216.971 224.683 216.988 223.918 C 216.994 223.598 219.733 220.56 223.073 217.168 L 229.146 211 L 243.967 211 L 258.789 211 L 260.402 219.25 M 497.54 333.282 C 497.335 333.952 496.898 335.729 496.569 337.232 C 495.953 340.045 490.49 347 488.896 347 C 488.403 347 488 345.147 488 342.882 C 488 339.732 488.705 337.961 491 335.347 C 492.65 333.468 494 332.261 494 332.665 C 494 333.069 494.522 332.878 495.16 332.24 C 496.532 330.868 498.072 331.543 497.54 333.282" stroke-linecap="round" />
</g>
		<g transform="matrix(1.33 0 0 1.33 3.75 -172.33)"  >
<path style="stroke: rgb(2,13,5); stroke-width: 1; stroke-dasharray: none; stroke-linecap: butt; stroke-dashoffset: 0; stroke-linejoin: miter; stroke-miterlimit: 4; fill: rgb(255,255,255); fill-rule: nonzero; opacity: 1;" vector-effect="non-scaling-stroke"  transform=" translate(-305.34, -170.45)" d="M 291 85.65 C 274.619 86.796 252.599 91.333 237.788 96.614 C 227.183 100.395 214 106.125 214 106.952 C 214 107.345 213.416 107.667 212.703 107.667 C 211.062 107.667 198.749 114.832 197.765 116.36 C 197.361 116.987 197.024 117.146 197.015 116.713 C 196.995 115.664 187.114 122.424 177.5 130.064 C 161.528 142.757 144.512 161.822 132.042 181 C 119.066 200.955 105.482 233 110 233 C 110.55 233 110.947 232.663 110.882 232.25 C 110.816 231.838 110.873 231.163 111.007 230.75 C 111.14 230.338 111.306 230.45 111.375 231 C 111.444 231.55 111.878 231.97 112.341 231.933 C 112.804 231.897 113.747 232.64 114.438 233.585 C 115.331 234.806 115.904 234.965 116.416 234.135 C 116.813 233.493 117.557 233.226 118.069 233.543 C 118.581 233.859 119 233.641 119 233.059 C 119 231.64 117.712 231.721 115.998 233.25 C 114.806 234.313 114.794 234.239 115.921 232.75 C 116.649 231.788 116.965 230.944 116.622 230.875 C 116.28 230.806 115.438 230.687 114.75 230.61 C 113.808 230.504 113.791 230.284 114.681 229.718 C 115.33 229.305 116.149 229.432 116.5 230 C 116.851 230.568 117.557 230.774 118.069 230.457 C 118.581 230.141 119 230.385 119 231 C 119 231.615 119.52 231.797 120.155 231.405 C 120.844 230.979 121.039 231.129 120.638 231.776 C 120.269 232.373 120.432 233.149 121 233.5 C 121.568 233.851 121.731 234.627 121.362 235.224 C 120.918 235.942 121.165 236.013 122.095 235.433 C 122.868 234.951 124.174 234.454 124.999 234.33 C 127.753 233.915 130.36 229.689 129.915 226.362 C 129.868 226.011 130.205 225.448 130.665 225.112 C 131.124 224.775 133.91 219.55 136.855 213.5 C 154.148 177.975 182.228 147.636 215.253 128.795 C 219.789 126.208 226.65 122.741 230.5 121.092 C 242.494 115.953 245.467 114.715 246.5 114.43 C 259.643 110.803 272.166 107.859 278.5 106.909 C 287.816 105.511 316.539 105.011 322.446 106.145 C 324.676 106.573 330.55 107.657 335.5 108.554 C 340.45 109.451 348.775 111.541 354 113.198 C 359.225 114.855 363.95 116.276 364.5 116.355 C 365.05 116.435 365.725 116.744 366 117.042 C 366.275 117.34 369.875 119.072 374 120.891 C 384.019 125.308 397.703 133.427 408.044 141.087 C 419.913 149.879 437.854 167.688 446.744 179.5 C 450.883 185 454.659 189.65 455.135 189.833 C 455.611 190.017 456 190.804 456 191.583 C 456 192.363 456.45 193 457 193 C 457.55 193 457.9 193.338 457.778 193.75 C 457.495 194.708 465.133 208.389 466.2 208.833 C 466.64 209.017 467 209.741 467 210.443 C 467 211.144 468.601 215.184 470.559 219.421 C 473.915 226.685 478.624 240.355 480.985 249.69 C 481.715 252.577 482.737 254.116 484.272 254.641 C 487.224 255.649 488.3 255.74 489.5 255.08 C 490.05 254.778 489.825 254.517 489 254.5 C 487.947 254.478 487.852 254.246 488.681 253.718 C 489.33 253.305 490.158 253.447 490.52 254.032 C 490.978 254.773 491.608 254.74 492.589 253.926 C 493.672 253.027 494.354 253.049 495.523 254.019 C 496.801 255.08 496.941 255.011 496.396 253.591 C 495.86 252.192 496.185 252.008 498.264 252.53 C 499.649 252.878 501.022 252.774 501.315 252.3 C 502.848 249.818 496.911 229.584 489.93 213.5 C 478.075 186.185 462.077 163.006 440.877 142.427 C 429.306 131.194 411.666 117.416 408.612 117.226 C 408.123 117.196 407.44 116.712 407.094 116.152 C 406.099 114.542 390.722 106.054 389.816 106.614 C 389.367 106.891 389 106.695 389 106.178 C 389 104.162 365.242 95.151 348.962 90.992 C 333.504 87.042 306.572 84.56 291 85.65" stroke-linecap="round" />
</g>
		<g transform="matrix(1.33 0 0 1.33 223.3 229.17)"  >
<path style="stroke: rgb(2,13,5); stroke-width: 1; stroke-dasharray: none; stroke-linecap: butt; stroke-dashoffset: 0; stroke-linejoin: miter; stroke-miterlimit: 4; fill: rgb(255,255,255); fill-rule: nonzero; opacity: 1;" vector-effect="non-scaling-stroke"  transform=" translate(-470, -471.57)" d="M 479.734 430.027 C 466.854 433.271 458.322 443.479 458.118 455.889 C 457.916 468.221 465.276 476.336 480.955 481.069 C 491.911 484.376 495.744 489.206 490.896 493.595 C 488.597 495.676 488.716 495.669 460.75 495.241 L 445 495 L 445 465.923 L 445 436.846 L 442.077 433.923 C 438.35 430.197 434.244 430.082 430.077 433.589 L 427 436.178 L 427 472.134 L 427 508.091 L 429.388 510.479 C 430.702 511.793 433.339 513.16 435.248 513.519 C 437.157 513.877 451.044 513.999 466.109 513.79 C 491.386 513.439 493.856 513.247 498.108 511.301 C 503.012 509.057 510.316 502.321 509.419 500.869 C 509.124 500.391 509.287 500 509.783 500 C 511.012 500 513 493.056 513 488.76 C 513 484.113 510.576 477.444 507.35 473.215 C 504.924 470.034 494.343 464.003 491.185 464.001 C 490.462 464 487.679 463.057 485 461.905 C 479.72 459.633 477.627 456.24 479.081 452.31 C 480.729 447.854 487.259 446.753 495.483 449.546 C 499.684 450.972 500.265 450.957 502.987 449.349 C 507.846 446.478 509.174 440.763 505.938 436.648 C 501.364 430.834 488.968 427.701 479.734 430.027" stroke-linecap="round" />
</g>
		<g transform="matrix(1.33 0 0 1.33 -61.7 230.31)"  >
<path style="stroke: rgb(2,13,5); stroke-width: 1; stroke-dasharray: none; stroke-linecap: butt; stroke-dashoffset: 0; stroke-linejoin: miter; stroke-miterlimit: 4; fill: rgb(255,255,255); fill-rule: nonzero; opacity: 1;" vector-effect="non-scaling-stroke"  transform=" translate(-256.25, -472.43)" d="M 228.764 434.082 L 226 436.846 L 226 472.367 L 226 507.888 L 228.394 510.672 C 231.588 514.385 237.697 514.573 241.422 511.074 C 243.931 508.717 243.959 508.511 244.228 490.617 L 244.5 472.541 L 257.333 492.183 C 270.894 512.941 272.821 514.857 278.808 513.542 C 280.426 513.187 282.818 511.758 284.124 510.367 L 286.5 507.838 L 286.5 472.252 C 286.5 444.672 286.219 436.573 285.25 436.25 C 284.563 436.021 284 435.268 284 434.577 C 284 433.031 279.747 431 276.509 431 C 275.19 431 272.849 432.085 271.306 433.41 L 268.5 435.821 L 268 452.16 L 267.5 468.5 L 256.792 452.5 C 250.902 443.7 245.502 435.825 244.792 435 C 240.76 430.318 232.974 429.872 228.764 434.082" stroke-linecap="round" />
</g>
		<g transform="matrix(1.33 0 0 1.33 -231.18 230.41)"  >
<path style="stroke: rgb(2,13,5); stroke-width: 1; stroke-dasharray: none; stroke-linecap: butt; stroke-dashoffset: 0; stroke-linejoin: miter; stroke-miterlimit: 4; fill: rgb(255,255,255); fill-rule: nonzero; opacity: 1;" vector-effect="non-scaling-stroke"  transform=" translate(-129.14, -472.5)" d="M 106.096 432.198 C 104.774 432.914 102.749 434.77 101.596 436.323 C 99.563 439.062 99.5 440.184 99.5 473.551 L 99.5 507.955 L 102.25 510.705 C 106.145 514.6 112.242 514.583 115.61 510.667 C 117.865 508.046 117.992 507.229 117.754 496.94 C 117.514 486.618 117.613 485.993 119.5 485.872 C 120.6 485.802 122.513 485.639 123.75 485.509 C 124.988 485.379 126 485.58 126 485.955 C 126 487.536 142.065 510.932 144.157 512.397 C 150.59 516.903 160.755 510.104 158.448 502.837 C 158.045 501.566 154.784 495.884 151.201 490.211 L 144.687 479.895 L 148.796 475.697 C 154.113 470.266 156.005 465.547 155.978 457.782 C 155.941 447.14 150.525 438.853 140.404 433.954 C 136.254 431.945 133.729 431.574 122.046 431.26 C 112.223 430.996 107.839 431.254 106.096 432.198 M 132.675 451.717 C 135.476 453.539 137.185 458.384 136.065 461.329 C 134.644 465.068 132.036 466.452 125.355 467.012 C 120.201 467.445 118.906 467.257 118.545 466.023 C 117.725 463.222 117.643 453.387 118.429 452.115 C 120.41 448.909 128.031 448.696 132.675 451.717" stroke-linecap="round" />
</g>
		<g transform="matrix(1.33 0 0 1.33 103.52 230.11)"  >
<path style="stroke: rgb(2,13,5); stroke-width: 1; stroke-dasharray: none; stroke-linecap: butt; stroke-dashoffset: 0; stroke-linejoin: miter; stroke-miterlimit: 4; fill: rgb(255,255,255); fill-rule: nonzero; opacity: 1;" vector-effect="non-scaling-stroke"  transform=" translate(-380.17, -472.28)" d="M 376.333 431.087 C 374.591 431.597 372.066 433.322 370.721 434.92 C 368.764 437.246 355.317 468.571 354.589 472.5 C 354.487 473.05 353.908 474.4 353.302 475.5 C 350.462 480.656 342 503.101 342 505.479 C 342 508.992 346.98 514 350.473 514 C 355.633 514 358.521 511.473 361.837 504.057 L 364.992 497 L 373.746 496.778 C 389.135 496.387 392.462 496.393 394.238 496.815 C 395.277 497.061 396.807 499.491 398.047 502.863 C 400.475 509.472 401.662 511.227 404.855 512.928 C 410.226 515.79 418.333 511.02 418.333 504.998 C 418.333 502.455 397.572 448.486 396.022 447 C 395.735 446.725 395.361 445.825 395.191 445 C 394.436 441.332 390.599 434.852 388.164 433.131 C 384.708 430.689 380.297 429.927 376.333 431.087 M 384.809 468 L 388.843 477.5 L 380.421 477.789 C 375.79 477.948 372 477.913 372 477.711 C 372 477.371 375.314 469.046 378.614 461.096 C 379.391 459.225 380.195 457.875 380.401 458.096 C 380.606 458.318 382.59 462.775 384.809 468" stroke-linecap="round" />
</g>
		<g transform="matrix(1.33 0 0 1.33 -145.99 230.35)"  >
<path style="stroke: rgb(2,13,5); stroke-width: 1; stroke-dasharray: none; stroke-linecap: butt; stroke-dashoffset: 0; stroke-linejoin: miter; stroke-miterlimit: 4; fill: rgb(255,255,255); fill-rule: nonzero; opacity: 1;" vector-effect="non-scaling-stroke"  transform=" translate(-193.04, -472.46)" d="M 173.213 432.507 C 167.32 435.067 167 437.132 167 472.567 C 167 515.035 166.061 513.265 188.897 513.835 C 207.363 514.295 213.549 513.542 216.634 510.457 C 220.09 507.001 219.855 501.701 216.077 497.923 L 213.154 495 L 199.327 495.002 L 185.5 495.005 L 185.832 488.002 L 186.164 481 L 197.035 481 C 209.388 481 212.257 480.086 214.459 475.445 C 216.323 471.516 215.401 468.247 211.58 465.242 C 209.383 463.513 207.392 463.199 197.796 463.068 C 191.628 462.984 186.386 462.719 186.147 462.481 C 185.495 461.828 185.699 450.967 186.377 450.29 C 186.7 449.967 192.73 449.657 199.776 449.601 C 214.622 449.484 217.457 448.413 218.565 442.503 C 219.396 438.074 217.16 434.383 212.454 432.416 C 207.673 430.419 177.861 430.487 173.213 432.507" stroke-linecap="round" />
</g>
		<g transform="matrix(1.33 0 0 1.33 22.01 230.3)"  >
<path style="stroke: rgb(2,13,5); stroke-width: 1; stroke-dasharray: none; stroke-linecap: butt; stroke-dashoffset: 0; stroke-linejoin: miter; stroke-miterlimit: 4; fill: rgb(255,255,255); fill-rule: nonzero; opacity: 1;" vector-effect="non-scaling-stroke"  transform=" translate(-319.03, -472.42)" d="M 295.887 432.117 C 292.402 433.395 289.496 438.855 290.394 442.435 C 291.524 446.935 295.347 450 299.83 450 C 301.986 450 305.156 450.281 306.875 450.625 L 310 451.25 L 310.004 478.875 C 310.007 504.37 310.156 506.743 311.931 509.655 C 314.235 513.433 318.744 514.763 323.113 512.953 C 328.691 510.643 329 508.841 329 478.657 C 329 447.762 328.363 450 337.159 450 C 341.346 450 342.626 449.527 345.077 447.077 C 349.869 442.285 348.163 434.298 341.881 432.108 C 337.954 430.74 299.622 430.746 295.887 432.117" stroke-linecap="round" />
</g>
		<g transform="matrix(1.33 0 0 1.33 -165.37 150.31)"  >
<path style="stroke: rgb(2,13,5); stroke-width: 1; stroke-dasharray: none; stroke-linecap: butt; stroke-dashoffset: 0; stroke-linejoin: miter; stroke-miterlimit: 4; fill: rgb(255,255,255); fill-rule: nonzero; opacity: 1;" vector-effect="non-scaling-stroke"  transform=" translate(-178.5, -412.43)" d="M 89.667 408.667 C 89.3 409.033 89 410.554 89 412.045 C 89 414.07 89.707 415.05 91.786 415.911 C 93.835 416.76 117.069 416.99 179.632 416.783 C 269.517 416.484 268 416.565 268 412.078 C 268 407.948 269.155 408 177.967 408 C 129.768 408 90.033 408.3 89.667 408.667" stroke-linecap="round" />
</g>
		<g transform="matrix(1.33 0 0 1.33 166.36 150.34)"  >
<path style="stroke: rgb(2,13,5); stroke-width: 1; stroke-dasharray: none; stroke-linecap: butt; stroke-dashoffset: 0; stroke-linejoin: miter; stroke-miterlimit: 4; fill: rgb(255,255,255); fill-rule: nonzero; opacity: 1;" vector-effect="non-scaling-stroke"  transform=" translate(-427.29, -412.45)" d="M 340.036 408.956 C 337.84 410.345 339.87 415.232 343.009 416.113 C 346 416.952 507.547 417.2 510.703 416.37 C 511.915 416.052 513.596 414.739 514.439 413.453 C 515.818 411.349 515.815 410.958 514.414 409.557 C 513.029 408.172 503.413 408.002 427.179 408.015 C 376.387 408.024 340.904 408.408 340.036 408.956" stroke-linecap="round" />
</g>
		<g transform="matrix(1.33 0 0 1.33 153.39 62.12)"  >
<path style="stroke: rgb(2,13,5); stroke-width: 1; stroke-dasharray: none; stroke-linecap: butt; stroke-dashoffset: 0; stroke-linejoin: miter; stroke-miterlimit: 4; fill: rgb(255,255,255); fill-rule: nonzero; opacity: 1;" vector-effect="non-scaling-stroke"  transform=" translate(-417.57, -346.29)" d="M 413 324.895 C 410.767 325.516 410.5 326.115 410.5 330.505 C 410.5 334.631 410.131 335.606 408.2 336.577 C 406.336 337.515 405.216 337.385 402.279 335.887 C 397.751 333.579 396.579 334.419 394.969 341.13 C 393.601 346.831 393.903 347.37 399.486 349.196 C 404.386 350.799 404.892 352.786 401.444 356.884 C 399.001 359.787 398.909 360.212 400.273 362.293 C 401.086 363.535 403.374 365.425 405.357 366.493 L 408.961 368.434 L 412.365 364.717 C 414.238 362.673 416.477 361 417.342 361 C 418.207 361 420.171 362.575 421.707 364.5 C 424.354 367.817 428 369.231 428 366.941 C 428 366.359 428.379 366.116 428.842 366.402 C 429.304 366.688 431.13 365.429 432.898 363.605 L 436.113 360.288 L 433.557 357.25 C 429.501 352.43 430.471 349 435.891 349 C 436.841 349 438.455 348.388 439.478 347.64 C 441.176 346.398 441.225 345.874 440.039 341.64 C 439.325 339.088 438.322 337 437.811 337 C 437.3 337 437.16 336.55 437.5 336 C 438.346 334.631 436.357 334.761 430.84 336.436 L 426.181 337.85 L 424.966 334.919 C 424.299 333.307 424.025 330.626 424.358 328.962 C 424.876 326.372 424.596 325.797 422.416 324.968 C 419.567 323.885 416.711 323.863 413 324.895 M 422.25 344.135 C 424.009 346.489 424.073 347.077 422.853 349.635 C 421.818 351.803 420.674 352.578 418.15 352.82 C 412.353 353.377 409.584 349.203 412.094 343.693 C 413.675 340.223 419.518 340.478 422.25 344.135" stroke-linecap="round" />
</g>
		<g transform="matrix(1.33 0 0 1.33 -163.04 61.88)"  >
<path style="stroke: rgb(2,13,5); stroke-width: 1; stroke-dasharray: none; stroke-linecap: butt; stroke-dashoffset: 0; stroke-linejoin: miter; stroke-miterlimit: 4; fill: rgb(255,255,255); fill-rule: nonzero; opacity: 1;" vector-effect="non-scaling-stroke"  transform=" translate(-180.24, -346.1)" d="M 177.835 324.499 C 177.476 324.857 176.355 325.281 175.342 325.44 C 173.879 325.671 173.56 326.476 173.792 329.353 C 173.952 331.345 173.575 333.926 172.954 335.087 C 171.797 337.248 170.136 337.312 162.839 335.472 C 159.656 334.669 158.288 336.619 157.379 343.252 L 156.785 347.585 L 161.643 349.042 C 167.479 350.794 168.288 353.178 164.443 357.297 C 161.967 359.949 161.915 360.221 163.425 362.526 C 165.427 365.582 170.532 368.283 172.89 367.535 C 173.874 367.223 175.274 365.857 176 364.5 C 178.257 360.284 181.004 360.24 184.57 364.365 C 186.298 366.364 188.371 368 189.176 368 C 189.981 368 192.5 366.408 194.773 364.462 L 198.906 360.925 L 195.703 356.381 C 192.588 351.961 192.554 351.8 194.442 350.419 C 195.509 349.639 197.335 349 198.5 349 C 199.665 349 201.42 348.413 202.4 347.697 C 203.981 346.541 204.048 345.888 202.998 341.947 C 202.347 339.501 201.127 336.731 200.288 335.79 C 198.853 334.182 198.518 334.205 194.631 336.188 C 192.359 337.347 190.407 338.342 190.293 338.398 C 190.179 338.454 189.406 337.6 188.575 336.5 C 187.734 335.387 187.049 332.392 187.032 329.75 C 187.009 326.402 186.594 325 185.625 325 C 184.869 325 182.953 324.741 181.368 324.424 C 179.783 324.107 178.193 324.14 177.835 324.499 M 184.811 343.039 C 188.981 346.924 186.351 353 180.5 353 C 174.754 353 172.037 346.963 176 343 C 178.564 340.436 182.034 340.451 184.811 343.039" stroke-linecap="round" />
</g>
		<g transform="matrix(1.33 0 0 1.33 -138.01 -33.48)"  >
<path style="stroke: rgb(2,13,5); stroke-width: 1; stroke-dasharray: none; stroke-linecap: butt; stroke-dashoffset: 0; stroke-linejoin: miter; stroke-miterlimit: 4; fill: rgb(255,255,255); fill-rule: nonzero; opacity: 1;" vector-effect="non-scaling-stroke"  transform=" translate(-199.02, -274.58)" d="M 184 269.247 C 182.151 270.208 181.421 271.492 181.195 274.178 C 180.698 280.109 182.97 281 198.588 281 C 210.37 281 212.003 280.785 214.365 278.927 C 217.545 276.426 217.759 272.998 214.898 270.405 C 213.094 268.77 210.935 268.461 199.648 268.224 C 190.343 268.029 185.769 268.328 184 269.247" stroke-linecap="round" />
</g>
		<g transform="matrix(1.33 0 0 1.33 -274.75 123.81)"  >
<path style="stroke: rgb(2,13,5); stroke-width: 1; stroke-dasharray: none; stroke-linecap: butt; stroke-dashoffset: 0; stroke-linejoin: miter; stroke-miterlimit: 4; fill: rgb(255,255,255); fill-rule: nonzero; opacity: 1;" vector-effect="non-scaling-stroke"  transform=" translate(-96.46, -392.56)" d="M 89.75 389.08 C 87.4 390.449 87.513 394.669 89.934 395.965 C 93.322 397.778 100.772 397.228 103 395 C 105.556 392.444 105.517 391.475 102.777 389.557 C 100.278 387.806 92.431 387.519 89.75 389.08" stroke-linecap="round" />
</g>
		<g transform="matrix(1.33 0 0 1.33 274.63 123.75)"  >
<path style="stroke: rgb(2,13,5); stroke-width: 1; stroke-dasharray: none; stroke-linecap: butt; stroke-dashoffset: 0; stroke-linejoin: miter; stroke-miterlimit: 4; fill: rgb(255,255,255); fill-rule: nonzero; opacity: 1;" vector-effect="non-scaling-stroke"  transform=" translate(-508.5, -392.51)" d="M 501.75 389.08 C 497.375 391.628 501.803 397 508.277 397 C 512.714 397 517 394.837 517 392.598 C 517 391.89 516.177 390.565 515.171 389.655 C 513.1 387.78 504.606 387.417 501.75 389.08" stroke-linecap="round" />
</g>
		<g transform="matrix(1.33 0 0 1.33 2.03 149.71)"  >
<path style="stroke: rgb(2,13,5); stroke-width: 1; stroke-dasharray: none; stroke-linecap: butt; stroke-dashoffset: 0; stroke-linejoin: miter; stroke-miterlimit: 4; fill: rgb(255,255,255); fill-rule: nonzero; opacity: 1;" vector-effect="non-scaling-stroke"  transform=" translate(-304.04, -411.98)" d="M 298.244 409.156 C 296.586 410.814 296.668 413.48 298.422 414.936 C 299.212 415.591 301.946 415.979 304.57 415.808 C 309.957 415.457 312.272 413.247 310.392 410.25 C 309.031 408.081 300.121 407.279 298.244 409.156" stroke-linecap="round" />
</g>
</g>
</g>
</svg>