<!DOCTYPE svg PUBLIC "-//W3C//DTD SVG 1.1//EN" "http://www.w3.org/Graphics/SVG/1.1/DTD/svg11.dtd">
<!-- Uploaded to: SVG Repo, www.svgrepo.com, Transformed by: SVG Repo Mixer Tools -->
<svg fill="#ffffff" width="800px" height="800px" viewBox="-2 -4 24 24" xmlns="http://www.w3.org/2000/svg" preserveAspectRatio="xMinYMin" class="jam jam-luggage" stroke="#ffffff">
<g id="SVGRepo_bgCarrier" stroke-width="0"/>
<g id="SVGRepo_tracerCarrier" stroke-linecap="round" stroke-linejoin="round"/>
<g id="SVGRepo_iconCarrier">
<path d="M15 6v8h-2V6H7v8H5V6a3 3 0 0 0-3 3v2a3 3 0 0 0 3 3h10a3 3 0 0 0 3-3V9a3 3 0 0 0-3-3zM7.17 4h5.66a3.004 3.004 0 0 0-5.66 0zM5.1 4a5.002 5.002 0 0 1 9.8 0h.1a5 5 0 0 1 5 5v2a5 5 0 0 1-5 5H5a5 5 0 0 1-5-5V9a5 5 0 0 1 5-5h.1z"/>
</g>
</svg>